<svg id="Layer_1" height="50pt" data-name="Layer 1" xmlns="http://www.w3.org/2000/svg" viewBox="0 0 841.89 595.28"><defs><style>.cls-1{fill:#940740;}.cls-2{fill:#fff;}</style></defs><path class="cls-1" d="M325.5,379h-41V128a41,41,0,0,1,41-41h0Z"/><ellipse class="cls-1" cx="399.48" cy="160" rx="73.98" ry="73"/><path class="cls-1" d="M325.78,87h69.44A9.78,9.78,0,0,1,405,96.78v0A67.22,67.22,0,0,1,337.78,164H321.62a1.62,1.62,0,0,1-1.62-1.62V92.78A5.78,5.78,0,0,1,325.78,87Z"/><path class="cls-1" d="M334.93,211.58c3.2,4.69,25.14,35.87,59.18,36.81,16.22.44,30.66-6.1,35.79-8.67,21.88-10.95,25.61-25.29,32.17-23.64,12.43,3.13,19.81,61.27-5.71,107.84C439,355.54,412,371.88,398,379H335.4Z"/><path class="cls-1" d="M385.68,212.76c-2.52,4.21,1.93,7.37,0,15.36-1.15,4.77-3,4.7-5.76,12.24-2,5.5-3,8.25-2.16,11.52,1.72,6.5,9.23,9.21,10.32,9.6,5.49,2,13.25,1.79,18.24-3.12a14,14,0,0,0,4.08-7.68c.69-4.69-2-6.16-2.4-11.28-.51-6.28,3.25-7.3,3.6-13.68.26-4.73-1.34-12.58-7.68-16.08S388.5,208,385.68,212.76Z"/><circle class="cls-1" cx="393.18" cy="256.5" r="3.42"/><circle class="cls-1" cx="397.01" cy="241.15" r="2.47"/><circle class="cls-1" cx="391.47" cy="251.91" r="3.06"/><circle class="cls-2" cx="396.56" cy="240.07" r="3.11"/><circle class="cls-2" cx="390.44" cy="249.25" r="2.75"/><ellipse class="cls-2" cx="400.62" cy="229.05" rx="4.44" ry="4.32"/><circle class="cls-2" cx="396.17" cy="256.97" r="0.83"/><circle class="cls-2" cx="399.48" cy="160" r="41.04"/><path class="cls-2" d="M346.33,322.08a32.33,32.33,0,0,0,41,49.33Z"/><rect class="cls-1" x="320.58" y="374.52" width="19.56" height="4.48"/><circle class="cls-2" cx="382.41" cy="332.92" r="4.96"/></svg>